# xmcd
#
# Track frame offsets: 
#        150
#        21957
#        39382
#        59257
#        75482
#        92932
#        110987
#        130557
#        146890
#        170557
#        186927
#        209107
#        231870
#
# Disc length: 3366 seconds
#
# Revision: 0
# Processed by: cddbd v1.5.2PL0 Copyright (c) Steve Scherf et al.
# Submitted via: ExactAudioCopy v0.95b2
#
DISCID=bf0d240d
DTITLE=Burton Gaar - Mighty Long Road
DYEAR=2000
DGENRE=Blues
TTITLE0=Bad Motor Scooter
TTITLE1=Home Wrecker
TTITLE2=Mighty Long Road
TTITLE3=Leave It Alone
TTITLE4=Somebody Broke My Lock
TTITLE5=Willingly
TTITLE6=Low Down Blues
TTITLE7=Big Mama Gumbeaux
TTITLE8=Truth
TTITLE9=I'm Down
TTITLE10=Soft Place To Lay
TTITLE11=One Night Lying
TTITLE12=I'm Gonna Be The One
EXTD=
EXTT0=
EXTT1=
EXTT2=
EXTT3=
EXTT4=
EXTT5=
EXTT6=
EXTT7=
EXTT8=
EXTT9=
EXTT10=
EXTT11=
EXTT12=
PLAYORDER=
